<svg xmlns="http://www.w3.org/2000/svg" width="158.138" height="59.713" viewBox="0 0 158.138 59.713">
  <g id="Group_6056" data-name="Group 6056" transform="translate(0)">
    <path id="Path_12630" data-name="Path 12630" d="M839.83,488.839a15.263,15.263,0,0,0-3.132.322,19.165,19.165,0,0,0,1.752-3.108,17.066,17.066,0,0,0,1.438-7.05,13.307,13.307,0,0,0-.762-4.54,12.068,12.068,0,0,0-2.115-3.722,10.234,10.234,0,0,0-3.159-2.538,8.371,8.371,0,0,0-3.891-.931,8.753,8.753,0,0,0-2.989.508,7.4,7.4,0,0,0-2.453,1.438,6.826,6.826,0,0,0-1.636,2.171,6.206,6.206,0,0,0-.592,2.707,6.856,6.856,0,0,0,1.664,4.539,5.481,5.481,0,0,0,1.748,1.354,4.784,4.784,0,0,0,2.115.479,4.385,4.385,0,0,0,1.72-.282,8.021,8.021,0,0,0,1.128-.592q.478-.311.959-.593a2.351,2.351,0,0,1,1.212-.282,1.406,1.406,0,0,1,1.212.931,4.557,4.557,0,0,1,.479,2.115,9.375,9.375,0,0,1-.959,4.089,14.049,14.049,0,0,1-2.594,3.694,18.2,18.2,0,0,1-3.891,3.017,20.861,20.861,0,0,1-4.794,2.059v1.929l-.007,0v20.987h8.884v-2.221a12.552,12.552,0,0,0,8.662,3.054c7.385,0,13.6-5.941,13.6-14.77C853.434,494.835,847.215,488.839,839.83,488.839ZM838,510.827a7.229,7.229,0,0,1,0-14.437c3.887,0,6.719,2.943,6.719,7.218C844.716,507.94,841.885,510.827,838,510.827Z" transform="translate(-822.284 -467.272)" fill="#b40e80"/>
    <path id="Path_12631" data-name="Path 12631" d="M939.073,532.031c-8.44,0-15.436,5.886-15.436,14.659,0,8.828,7,14.714,15.436,14.714,8.273,0,15.269-5.886,15.269-14.714C954.343,537.917,947.346,532.031,939.073,532.031Zm0,21.877a7.237,7.237,0,1,1,6.719-7.218A6.929,6.929,0,0,1,939.073,553.908Z" transform="translate(-889.71 -510.353)" fill="#b40e80"/>
    <path id="Path_12632" data-name="Path 12632" d="M1054.749,534.149h-10.716l-8.828,9.495h-1.222l-.081-9.514h-8.884l.081,27.893h8.884v-10.05h1.61l9.051,10.05h11.383l-13.493-14.6Z" transform="translate(-957.154 -511.75)" fill="#b40e80"/>
    <path id="Path_12633" data-name="Path 12633" d="M1136.2,543.471l-6.552-1.332c-1.777-.388-2.11-1.166-2.11-1.943,0-1,.777-2.166,3.165-2.166,2.721,0,4.386,1.555,4.664,3.276l8.107-1.61c-1.111-4.83-5.72-8-12.66-8-7.052,0-11.994,3.72-11.994,9.439,0,4.386,2.943,7.163,8.107,8.107l5.664,1.11c2.054.389,2.776,1.111,2.776,2.055,0,1.222-1.277,2.221-3.609,2.221-2.387,0-4.553-.889-4.942-3.276l-8.662,1.777c.944,5.719,6.552,8.107,13.1,8.107,7.329,0,12.659-3.22,12.659-9.384C1143.919,547.747,1141.476,544.582,1136.2,543.471Z" transform="translate(-1019.115 -510.133)" fill="#b40e80"/>
    <path id="Path_12634" data-name="Path 12634" d="M1220.045,534.022l-7.052,16.269-6.608-16.269h-9.55l11.549,26.985-4.5,10.383h9.606l16.1-37.369Z" transform="translate(-1071.457 -511.678)" fill="#b40e80"/>
  </g>
</svg>
